PathFileType	4	(X/Y/Z)	G:\マイドライブ\biomec\experimentalData\240725\SJ3.trc
DataRate	CameraRate	NumFrames	NumMarkers	Units	OrigDataRate	OrigDataStartFrame	OrigNumFrames
200.00	200.00	      4	52	mm	200.00	1	      1608
Frame#	Time	handR			wrRI			wrRO			elbRI			elbRO			shRF			shRU			shRB			handL			wrLI			wrLO			elbLI			elbLO			shLF			shLU			shLB			toeR			baRI			baRO			heelR			anRI			anRO			knRI			knRO			troR			toeL			baLI			baLO			heelL			anLI			anLO			knLI			knLO			troL			head			earR			earL			clav			c7			ribR			ribL			xiph			ASISR			ASISL			PSISR			PSISL			t8			t11			L1			L3			LS			COX			
		X1	Y1	Z1	X2	Y2	Z2	X3	Y3	Z3	X4	Y4	Z4	X5	Y5	Z5	X6	Y6	Z6	X7	Y7	Z7	X8	Y8	Z8	X9	Y9	Z9	X10	Y10	Z10	X11	Y11	Z11	X12	Y12	Z12	X13	Y13	Z13	X14	Y14	Z14	X15	Y15	Z15	X16	Y16	Z16	X17	Y17	Z17	X18	Y18	Z18	X19	Y19	Z19	X20	Y20	Z20	X21	Y21	Z21	X22	Y22	Z22	X23	Y23	Z23	X24	Y24	Z24	X25	Y25	Z25	X26	Y26	Z26	X27	Y27	Z27	X28	Y28	Z28	X29	Y29	Z29	X30	Y30	Z30	X31	Y31	Z31	X32	Y32	Z32	X33	Y33	Z33	X34	Y34	Z34	X35	Y35	Z35	X36	Y36	Z36	X37	Y37	Z37	X38	Y38	Z38	X39	Y39	Z39	X40	Y40	Z40	X41	Y41	Z41	X42	Y42	Z42	X43	Y43	Z43	X44	Y44	Z44	X45	Y45	Z45	X46	Y46	Z46	X47	Y47	Z47	X48	Y48	Z48	X49	Y49	Z49	X50	Y50	Z50	X51	Y51	Z51	X52	Y52	Z52	

1	0.000	156.33018	1556.47986	786.95508	166.63411	1608.21997	865.13660	203.64236	1547.43860	875.41937	280.00470	1633.92859	1088.48938	208.61844	1650.60339	1097.03857	250.40875	1563.54944	1386.46802	218.72520	1666.51465	1371.11108	209.05717	1614.29407	1407.12500	658.46814	1534.70349	776.07434	658.20148	1588.75513	856.85303	614.52307	1526.47961	855.50476	567.90466	1624.31628	1078.26440	641.90308	1623.17261	1085.22583	569.63782	1549.52771	1378.93896	597.72131	1659.80823	1359.02576	616.11407	1596.57971	1398.55957	291.47263	1466.25793	52.80391	337.23550	1548.44885	37.30501	214.07870	1569.70996	45.79928	302.19598	1752.02917	43.10338	337.58533	1667.10535	118.42838	244.16910	1685.05127	105.28497	346.05270	1640.18750	476.18182	242.63507	1621.16895	477.78198	240.70551	1560.40588	872.26807	587.16168	1456.77002	56.31624	530.85797	1522.37292	55.45560	639.65784	1561.20227	52.40808	555.71759	1740.91370	41.85045	520.15558	1647.06567	132.16620	605.15796	1680.03589	112.07338	490.38983	1638.19153	477.03943	597.38232	1638.15613	490.00449	583.76208	1576.11877	866.47717	418.61642	1620.06921	1701.81885	332.26556	1535.81079	1554.31177	490.00333	1529.93335	1550.36841	412.27603	1537.84375	1381.28735	418.73627	1653.17957	1466.32715	305.46820	1542.31824	1098.16125	528.66187	1544.53406	1096.26709	413.37933	1508.67004	1226.38757	308.36862	1497.19031	962.84229	530.06525	1510.92053	969.33978	351.50253	1672.48486	993.98328	472.68723	1675.32629	996.68427	419.20663	1724.28259	1256.32971	416.85703	1699.23608	1129.04395	418.95154	1680.50403	1072.25281	414.23697	1675.85986	1025.70520	413.48825	1684.97510	987.71082	412.21936	1709.91785	888.15857	
2	0.005	156.64842	1555.16040	787.16736	166.73177	1607.33521	865.11346	203.84657	1546.71582	875.62244	280.21039	1633.65210	1088.41296	208.78163	1650.24524	1096.95581	250.49554	1563.62952	1386.46948	218.79103	1666.56885	1371.06531	209.11935	1614.36121	1407.12341	658.23743	1533.59009	776.20667	657.82996	1587.87720	856.89368	614.32654	1525.61475	855.66974	567.84552	1624.02515	1078.26453	641.81360	1622.88318	1085.10889	569.64105	1549.58545	1378.94934	597.78552	1659.84375	1358.99780	616.21558	1596.62732	1398.57483	291.50098	1466.25134	52.81581	337.23050	1548.45203	37.26616	214.07446	1569.70642	45.82653	302.18454	1752.03967	43.11534	337.56998	1667.10486	118.40609	244.16693	1685.07300	105.29394	346.05676	1640.17615	476.20712	242.65924	1621.16711	477.78940	240.71443	1560.44177	872.29315	587.14404	1456.76978	56.32099	530.85931	1522.34875	55.44826	639.68060	1561.16614	52.40268	555.71515	1740.91199	41.85213	520.14990	1647.06226	132.17296	605.16614	1680.02405	112.10485	490.35330	1638.20496	477.03586	597.39026	1638.14783	490.01190	583.86798	1576.18750	866.53058	418.62631	1620.18530	1701.82300	332.29956	1535.94543	1554.31140	489.98175	1530.01758	1550.40955	412.31311	1537.92139	1381.31238	418.82217	1653.26477	1466.32227	305.47040	1542.36353	1098.20093	528.67297	1544.57239	1096.21326	413.44473	1508.74609	1226.38367	308.41489	1497.27283	962.87207	530.07129	1510.93726	969.34015	351.51968	1672.52881	993.97253	472.75574	1675.33655	996.66376	419.30283	1724.35901	1256.31250	416.93930	1699.29578	1128.99500	418.98386	1680.53076	1072.26013	414.30426	1675.88953	1025.68372	413.51733	1684.99463	987.70563	412.26303	1709.94641	888.11768	
3	0.010	156.79446	1554.18542	787.30896	166.85550	1606.31604	865.08856	204.11475	1545.85803	875.88593	280.38345	1633.38574	1088.29895	208.90492	1649.87598	1096.81445	250.56847	1563.71423	1386.49158	218.83208	1666.62952	1371.02869	209.17917	1614.42590	1407.11121	657.81775	1532.64197	776.34863	657.52582	1586.99255	856.78168	614.15686	1524.84888	855.81635	567.73010	1623.74561	1078.23267	641.48749	1622.38989	1084.63574	569.68573	1549.65747	1378.96851	597.87262	1659.85266	1358.99744	616.26294	1596.65466	1398.54907	291.49350	1466.23840	52.82267	337.22522	1548.44495	37.27534	214.07347	1569.71814	45.81949	302.18149	1752.03333	43.14407	337.56992	1667.09753	118.43787	244.16174	1685.05701	105.25645	346.07251	1640.17688	476.18021	242.65710	1621.17200	477.79956	240.73415	1560.52026	872.30029	587.14246	1456.78406	56.32447	530.86292	1522.35938	55.44258	639.68506	1561.17883	52.40900	555.72821	1740.88647	41.84480	520.14960	1647.09619	132.17052	605.15051	1680.02319	112.06756	490.39093	1638.21387	477.03738	597.39209	1638.14331	490.00632	583.87323	1576.24915	866.52063	418.66260	1620.30188	1701.79773	332.31879	1536.07825	1554.29187	490.01831	1530.12939	1550.42297	412.36969	1538.00903	1381.29175	418.85330	1653.34888	1466.30896	305.46616	1542.37524	1098.25671	528.70941	1544.60706	1096.19324	413.46979	1508.81848	1226.38098	308.37708	1497.33740	962.89380	530.07196	1510.97522	969.32050	351.54166	1672.60938	993.95764	472.77469	1675.36987	996.64325	419.38388	1724.42114	1256.31531	416.99567	1699.34570	1129.00049	419.00864	1680.60962	1072.24512	414.32513	1675.94727	1025.67334	413.57059	1685.02869	987.69611	412.30292	1709.97815	888.10175	
4	0.015	156.95988	1553.04163	787.41101	166.97746	1605.63257	865.12018	204.41562	1544.96252	876.03070	280.52490	1633.06763	1088.25879	209.02052	1649.56152	1096.74072	250.65581	1563.78650	1386.47876	218.87691	1666.67761	1371.00012	209.22458	1614.51648	1407.11389	657.24011	1531.52539	776.42175	657.08643	1585.78906	856.80695	613.85895	1523.97253	855.99469	567.64783	1623.49023	1078.17139	641.41315	1622.12439	1084.54700	569.69269	1549.72852	1378.99182	597.94189	1659.88940	1358.97363	616.30884	1596.70203	1398.56543	291.48349	1466.27197	52.81878	337.18912	1548.45703	37.26794	214.06360	1569.72998	45.82359	302.15686	1752.04077	43.11577	337.57681	1667.09680	118.43597	244.14484	1685.04272	105.26484	346.07492	1640.26904	476.21973	242.66528	1621.20349	477.78424	240.72983	1560.55920	872.30316	587.14575	1456.79370	56.32544	530.86499	1522.36792	55.45347	639.67792	1561.18433	52.37189	555.72107	1740.91284	41.85784	520.14148	1647.09778	132.16795	605.18164	1680.02930	112.06387	490.39481	1638.22693	477.02829	597.41681	1638.16992	490.01184	583.86591	1576.27637	866.44562	418.66806	1620.39758	1701.80444	332.32767	1536.17065	1554.28625	490.03516	1530.20007	1550.45691	412.36139	1538.10059	1381.30835	418.92572	1653.44702	1466.33093	305.50729	1542.40320	1098.27368	528.73291	1544.63184	1096.17200	413.53418	1508.89734	1226.38074	308.41107	1497.42993	962.92896	530.05664	1511.02539	969.33728	351.56818	1672.68701	993.94110	472.76981	1675.40259	996.61218	419.45978	1724.48645	1256.28821	417.05136	1699.39014	1128.99731	419.06375	1680.68652	1072.24927	414.39929	1675.99573	1025.66577	413.57324	1685.04871	987.68066	412.33423	1710.00940	888.05176	
